<svg width="140" height="43" viewBox="0 0 140 43" fill="none" xmlns="http://www.w3.org/2000/svg">
<rect width="140" height="43" fill="#5ECE7B"/>
<path d="M30.4793 20.96C30.4793 20.3533 30.5866 19.7607 30.8013 19.182C31.0159 18.594 31.3286 18.062 31.7393 17.586C32.1593 17.1007 32.6679 16.718 33.2653 16.438C33.8626 16.1487 34.5393 16.004 35.2953 16.004C36.1913 16.004 36.9659 16.2093 37.6193 16.62C38.2726 17.0213 38.7579 17.5393 39.0753 18.174L37.8433 19C37.6566 18.5987 37.4186 18.2813 37.1293 18.048C36.8493 17.8147 36.5413 17.6513 36.2053 17.558C35.8786 17.4647 35.5566 17.418 35.2393 17.418C34.7166 17.418 34.2593 17.5253 33.8673 17.74C33.4753 17.9453 33.1439 18.2207 32.8733 18.566C32.6119 18.9113 32.4113 19.2987 32.2713 19.728C32.1406 20.1573 32.0753 20.5867 32.0753 21.016C32.0753 21.492 32.1546 21.954 32.3133 22.402C32.4719 22.8407 32.6913 23.2327 32.9713 23.578C33.2606 23.914 33.6013 24.18 33.9933 24.376C34.3853 24.572 34.8146 24.67 35.2813 24.67C35.5986 24.67 35.9299 24.614 36.2753 24.502C36.6206 24.39 36.9379 24.2173 37.2273 23.984C37.5259 23.7413 37.7593 23.424 37.9273 23.032L39.2293 23.774C39.0239 24.2687 38.7019 24.6887 38.2633 25.034C37.8339 25.3793 37.3486 25.6407 36.8073 25.818C36.2753 25.9953 35.7479 26.084 35.2253 26.084C34.5253 26.084 33.8859 25.9393 33.3073 25.65C32.7286 25.3513 32.2293 24.9593 31.8093 24.474C31.3893 23.9793 31.0626 23.4287 30.8293 22.822C30.5959 22.206 30.4793 21.5853 30.4793 20.96ZM48.8416 16.06V26H47.2596V21.618H42.2476V26H40.6796V16.06H42.2476V20.218H47.2596V16.06H48.8416ZM57.9019 24.614V26H51.0839V16.06H57.7759V17.446H52.6519V20.274H57.0899V21.576H52.6519V24.614H57.9019ZM58.7117 20.96C58.7117 20.3533 58.819 19.7607 59.0337 19.182C59.2483 18.594 59.561 18.062 59.9717 17.586C60.3917 17.1007 60.9003 16.718 61.4977 16.438C62.095 16.1487 62.7717 16.004 63.5277 16.004C64.4237 16.004 65.1983 16.2093 65.8517 16.62C66.505 17.0213 66.9903 17.5393 67.3077 18.174L66.0757 19C65.889 18.5987 65.651 18.2813 65.3617 18.048C65.0817 17.8147 64.7737 17.6513 64.4377 17.558C64.111 17.4647 63.789 17.418 63.4717 17.418C62.949 17.418 62.4917 17.5253 62.0997 17.74C61.7077 17.9453 61.3763 18.2207 61.1057 18.566C60.8443 18.9113 60.6437 19.2987 60.5037 19.728C60.373 20.1573 60.3077 20.5867 60.3077 21.016C60.3077 21.492 60.387 21.954 60.5457 22.402C60.7043 22.8407 60.9237 23.2327 61.2037 23.578C61.493 23.914 61.8337 24.18 62.2257 24.376C62.6177 24.572 63.047 24.67 63.5137 24.67C63.831 24.67 64.1623 24.614 64.5077 24.502C64.853 24.39 65.1703 24.2173 65.4597 23.984C65.7583 23.7413 65.9917 23.424 66.1597 23.032L67.4617 23.774C67.2563 24.2687 66.9343 24.6887 66.4957 25.034C66.0663 25.3793 65.581 25.6407 65.0397 25.818C64.5077 25.9953 63.9803 26.084 63.4577 26.084C62.7577 26.084 62.1183 25.9393 61.5397 25.65C60.961 25.3513 60.4617 24.9593 60.0417 24.474C59.6217 23.9793 59.295 23.4287 59.0617 22.822C58.8283 22.206 58.7117 21.5853 58.7117 20.96ZM68.912 26V16.074H70.48V21.184L75.156 16.06H76.892L72.972 20.456L77.116 26H75.338L71.978 21.45L70.48 23.004V26H68.912ZM85.5791 26.07C84.8604 26.07 84.2118 25.93 83.6331 25.65C83.0544 25.37 82.5551 24.992 82.1351 24.516C81.7151 24.0307 81.3884 23.4893 81.1551 22.892C80.9311 22.2853 80.8191 21.6647 80.8191 21.03C80.8191 20.3673 80.9404 19.7373 81.1831 19.14C81.4258 18.5333 81.7618 17.9967 82.1911 17.53C82.6204 17.054 83.1244 16.6807 83.7031 16.41C84.2911 16.13 84.9258 15.99 85.6071 15.99C86.3164 15.99 86.9604 16.1347 87.5391 16.424C88.1271 16.7133 88.6264 17.1007 89.0371 17.586C89.4571 18.0713 89.7791 18.6127 90.0031 19.21C90.2364 19.8073 90.3531 20.4187 90.3531 21.044C90.3531 21.7067 90.2318 22.3413 89.9891 22.948C89.7558 23.5453 89.4244 24.082 88.9951 24.558C88.5658 25.0247 88.0571 25.3933 87.4691 25.664C86.8904 25.9347 86.2604 26.07 85.5791 26.07ZM82.4151 21.03C82.4151 21.4967 82.4898 21.9493 82.6391 22.388C82.7884 22.8267 82.9984 23.2187 83.2691 23.564C83.5491 23.9 83.8851 24.166 84.2771 24.362C84.6691 24.558 85.1078 24.656 85.5931 24.656C86.0971 24.656 86.5451 24.5533 86.9371 24.348C87.3291 24.1427 87.6558 23.8673 87.9171 23.522C88.1878 23.1673 88.3931 22.7753 88.5331 22.346C88.6731 21.9073 88.7431 21.4687 88.7431 21.03C88.7431 20.5633 88.6684 20.1153 88.5191 19.686C88.3791 19.2473 88.1691 18.86 87.8891 18.524C87.6091 18.1787 87.2731 17.908 86.8811 17.712C86.4984 17.516 86.0691 17.418 85.5931 17.418C85.0891 17.418 84.6411 17.5207 84.2491 17.726C83.8571 17.9313 83.5258 18.2067 83.2551 18.552C82.9844 18.8973 82.7744 19.2847 82.6251 19.714C82.4851 20.1433 82.4151 20.582 82.4151 21.03ZM96.1204 26.07C95.3271 26.07 94.6551 25.9347 94.1044 25.664C93.5631 25.3933 93.1244 25.0247 92.7884 24.558C92.4618 24.0913 92.2191 23.5593 92.0604 22.962C91.9111 22.3647 91.8364 21.744 91.8364 21.1V16.06H93.4044V21.1C93.4044 21.5573 93.4511 22.0007 93.5444 22.43C93.6378 22.85 93.7871 23.228 93.9924 23.564C94.1978 23.9 94.4731 24.166 94.8184 24.362C95.1731 24.558 95.6071 24.656 96.1204 24.656C96.6431 24.656 97.0771 24.558 97.4224 24.362C97.7771 24.1567 98.0524 23.886 98.2484 23.55C98.4538 23.2047 98.6031 22.822 98.6964 22.402C98.7898 21.982 98.8364 21.548 98.8364 21.1V16.06H100.418V21.1C100.418 21.7813 100.334 22.4253 100.166 23.032C100.008 23.6293 99.7558 24.1567 99.4104 24.614C99.0744 25.062 98.6358 25.4167 98.0944 25.678C97.5531 25.9393 96.8951 26.07 96.1204 26.07ZM109.798 17.446H106.494V26H104.912V17.446H101.594V16.06H109.798V17.446Z" fill="white"/>
</svg>
