<svg width="140" height="43" viewBox="0 0 140 43" fill="none" xmlns="http://www.w3.org/2000/svg">
<rect x="0.5" y="0.5" width="139" height="42" fill="white"/>
<path d="M37.8574 16.06L40.8534 24.082L43.8354 16.06H45.5014L41.5954 26H40.1114L36.1914 16.06H37.8574ZM46.7157 26V16.06H48.2837V26H46.7157ZM57.3482 24.614V26H50.5302V16.06H57.2222V17.446H52.0982V20.274H56.5362V21.576H52.0982V24.614H57.3482ZM62.4937 16.102H63.9637L65.1957 19.476L66.4417 16.102H67.9117L66.2037 20.526L67.6877 24.18L70.7817 16.06H72.5037L68.4297 26H67.0717L65.2097 21.548L63.3337 26H61.9617L57.9017 16.06H59.6097L62.7177 24.18L64.2017 20.526L62.4937 16.102ZM84.4554 23.438C84.4554 23.97 84.3154 24.4273 84.0354 24.81C83.7648 25.1927 83.3961 25.4867 82.9294 25.692C82.4628 25.8973 81.9494 26 81.3894 26H76.6434V16.06H81.7674C82.2341 16.06 82.6354 16.186 82.9714 16.438C83.3168 16.6807 83.5781 16.998 83.7554 17.39C83.9421 17.7727 84.0354 18.174 84.0354 18.594C84.0354 19.0793 83.9094 19.5367 83.6574 19.966C83.4148 20.386 83.0648 20.6987 82.6074 20.904C83.1768 21.072 83.6248 21.38 83.9514 21.828C84.2874 22.2667 84.4554 22.8033 84.4554 23.438ZM82.8454 23.144C82.8454 22.864 82.7848 22.612 82.6634 22.388C82.5514 22.1547 82.3928 21.968 82.1874 21.828C81.9914 21.6787 81.7581 21.604 81.4874 21.604H78.2114V24.642H81.3894C81.6694 24.642 81.9168 24.5767 82.1314 24.446C82.3554 24.306 82.5281 24.124 82.6494 23.9C82.7801 23.6667 82.8454 23.4147 82.8454 23.144ZM78.2114 17.418V20.344H81.0954C81.3568 20.344 81.5901 20.2833 81.7954 20.162C82.0008 20.0313 82.1641 19.8587 82.2854 19.644C82.4068 19.42 82.4674 19.168 82.4674 18.888C82.4674 18.5987 82.4114 18.3467 82.2994 18.132C82.1874 17.908 82.0334 17.7353 81.8374 17.614C81.6508 17.4833 81.4314 17.418 81.1794 17.418H78.2114ZM88.7556 16.06H90.2396L94.1036 26H92.4516L91.4016 23.298H87.5656L86.5296 26H84.8636L88.7556 16.06ZM91.0936 22.136L89.4976 17.782L87.8456 22.136H91.0936ZM99.0101 26.07C98.3567 26.07 97.7454 25.9347 97.1761 25.664C96.6067 25.3933 96.1074 25.02 95.6781 24.544C95.2581 24.068 94.9267 23.5267 94.6841 22.92C94.4507 22.3133 94.3341 21.6693 94.3341 20.988C94.3341 20.3067 94.4507 19.6673 94.6841 19.07C94.9267 18.4727 95.2581 17.9407 95.6781 17.474C96.1074 17.0073 96.6067 16.6433 97.1761 16.382C97.7547 16.1207 98.3847 15.99 99.0661 15.99C100.009 15.99 100.802 16.1907 101.446 16.592C102.099 16.984 102.589 17.5067 102.916 18.16L101.712 19.028C101.451 18.4867 101.077 18.0807 100.592 17.81C100.116 17.5393 99.5934 17.404 99.0241 17.404C98.5574 17.404 98.1327 17.502 97.7501 17.698C97.3674 17.894 97.0361 18.1647 96.7561 18.51C96.4854 18.846 96.2801 19.2333 96.1401 19.672C96.0001 20.1013 95.9301 20.554 95.9301 21.03C95.9301 21.534 96.0094 22.0053 96.1681 22.444C96.3267 22.8827 96.5507 23.27 96.8401 23.606C97.1294 23.9327 97.4701 24.1893 97.8621 24.376C98.2541 24.5627 98.6787 24.656 99.1361 24.656C99.6774 24.656 100.191 24.5207 100.676 24.25C101.171 23.97 101.633 23.5547 102.062 23.004V24.6C101.194 25.58 100.177 26.07 99.0101 26.07ZM101.908 22.136H99.8221V20.974H103.224V26H101.908V22.136Z" fill="#1D1F22"/>
<rect x="0.5" y="0.5" width="139" height="42" stroke="#1D1F22"/>
</svg>
